<?xml version="1.0" standalone="no"?>
<!DOCTYPE svg PUBLIC "-//W3C//DTD SVG 20010904//EN"
 "http://www.w3.org/TR/2001/REC-SVG-20010904/DTD/svg10.dtd">
<svg version="1.0" xmlns="http://www.w3.org/2000/svg"
 width="512.000000pt" height="512.000000pt" viewBox="0 0 512.000000 512.000000"
 preserveAspectRatio="xMidYMid meet">
<metadata>
Created by potrace 1.11, written by Peter Selinger 2001-2013
</metadata>
<g transform="translate(0.000000,512.000000) scale(0.100000,-0.100000)"
fill="#000000" stroke="none">
<path d="M0 2560 l0 -2560 2560 0 2560 0 0 2560 0 2560 -2560 0 -2560 0 0
-2560z m4664 1510 c-2 -65 -592 -2842 -607 -2857 -18 -18 -465 -59 -480 -44
-10 10 -114 1556 -116 1715 -1 22 -3 37 -5 35 -3 -2 -64 -391 -136 -864 -79
-517 -138 -869 -146 -882 -8 -13 -24 -23 -37 -23 -12 -1 -116 -9 -232 -19
-132 -12 -216 -16 -227 -10 -9 5 -20 24 -23 42 -3 17 -66 597 -140 1287 -75
690 -143 1313 -151 1384 -14 115 -14 130 -1 144 22 22 435 58 454 40 9 -9 31
-303 78 -1043 36 -566 69 -1052 73 -1078 6 -41 35 121 184 1034 121 739 182
1088 192 1098 11 10 70 19 198 32 188 17 218 15 218 -19 0 -25 129 -2083 132
-2107 2 -11 81 462 177 1050 95 589 177 1078 182 1088 6 9 13 17 17 18 4 0 63
6 132 14 69 7 157 12 195 11 l70 -1 -1 -45z m-3086 -116 c210 -43 344 -173
398 -385 22 -86 30 -402 15 -551 -30 -290 -94 -449 -236 -593 -148 -149 -356
-236 -647 -268 l-113 -13 -3 -34 c-1 -19 -16 -262 -32 -539 -22 -373 -33 -508
-43 -518 -15 -15 -414 -60 -441 -50 -12 5 -16 20 -16 56 0 28 38 673 85 1433
67 1083 88 1386 99 1397 9 8 71 21 159 32 385 49 643 60 775 33z"/>
<path d="M1153 3531 c-39 -3 -73 -8 -76 -11 -6 -8 -59 -932 -53 -938 9 -8 171
17 237 37 77 24 150 72 183 120 62 90 91 246 84 461 -4 118 -7 142 -30 191
-52 114 -157 157 -345 140z"/>
</g>
</svg>
